<svg viewBox="0 0 860 460" xmlns="http://www.w3.org/2000/svg" font-family="Helvetica,Arial,sans-serif">
<rect width="860" height="460" fill="#fcfcfb"/>
<text x="430.0" y="32" text-anchor="middle" font-size="18" font-weight="600" fill="#1a1a19">Median lines of code per answer — single-shot benchmark</text>
<text x="430.0" y="52" text-anchor="middle" font-size="12.5" fill="#52514e">Ponytail's own 5-task harness, 3 Claude models, n=50/arm-model. Lower is better.</text>
<line x1="189.0" y1="380.0" x2="671.0" y2="380.0" stroke="#e3e1d8" stroke-width="1"/>
<text x="181.0" y="384.0" text-anchor="end" font-size="11" fill="#52514e">0</text>
<line x1="189.0" y1="311.1111111111111" x2="671.0" y2="311.1111111111111" stroke="#e3e1d8" stroke-width="1"/>
<text x="181.0" y="315.1111111111111" text-anchor="end" font-size="11" fill="#52514e">20</text>
<line x1="189.0" y1="242.22222222222223" x2="671.0" y2="242.22222222222223" stroke="#e3e1d8" stroke-width="1"/>
<text x="181.0" y="246.22222222222223" text-anchor="end" font-size="11" fill="#52514e">40</text>
<line x1="189.0" y1="173.33333333333334" x2="671.0" y2="173.33333333333334" stroke="#e3e1d8" stroke-width="1"/>
<text x="181.0" y="177.33333333333334" text-anchor="end" font-size="11" fill="#52514e">60</text>
<line x1="189.0" y1="104.44444444444446" x2="671.0" y2="104.44444444444446" stroke="#e3e1d8" stroke-width="1"/>
<text x="181.0" y="108.44444444444446" text-anchor="end" font-size="11" fill="#52514e">80</text>
<path d="M199.0,380.0 L199.0,130.83333333333334 Q199.0,126.83333333333334 203.0,126.83333333333334 L219.0,126.83333333333334 Q223.0,126.83333333333334 223.0,130.83333333333334 L223.0,380.0 Z" fill="#2a78d6"/>
<text x="211.0" y="120.83333333333334" text-anchor="middle" font-size="11.5" fill="#1a1a19">73.5</text>
<path d="M229.0,380.0 L229.0,303.05555555555554 Q229.0,299.05555555555554 233.0,299.05555555555554 L249.0,299.05555555555554 Q253.0,299.05555555555554 253.0,303.05555555555554 L253.0,380.0 Z" fill="#1baf7a"/>
<text x="241.0" y="293.05555555555554" text-anchor="middle" font-size="11.5" fill="#1a1a19">23.5</text>
<path d="M259.0,380.0 L259.0,354.72222222222223 Q259.0,350.72222222222223 263.0,350.72222222222223 L279.0,350.72222222222223 Q283.0,350.72222222222223 283.0,354.72222222222223 L283.0,380.0 Z" fill="#eda100"/>
<text x="271.0" y="344.72222222222223" text-anchor="middle" font-size="11.5" fill="#1a1a19">8.5</text>
<path d="M289.0,380.0 L289.0,358.1666666666667 Q289.0,354.1666666666667 293.0,354.1666666666667 L309.0,354.1666666666667 Q313.0,354.1666666666667 313.0,358.1666666666667 L313.0,380.0 Z" fill="#eb6834"/>
<text x="301.0" y="348.1666666666667" text-anchor="middle" font-size="11.5" fill="#1a1a19">7.5</text>
<text x="256.0" y="402" text-anchor="middle" font-size="13" font-weight="600" fill="#1a1a19">Haiku 4.5</text>
<path d="M373.0,380.0 L373.0,82.61111111111114 Q373.0,78.61111111111114 377.0,78.61111111111114 L393.0,78.61111111111114 Q397.0,78.61111111111114 397.0,82.61111111111114 L397.0,380.0 Z" fill="#2a78d6"/>
<text x="385.0" y="72.61111111111114" text-anchor="middle" font-size="11.5" fill="#1a1a19">87.5</text>
<path d="M403.0,380.0 L403.0,311.6666666666667 Q403.0,307.6666666666667 407.0,307.6666666666667 L423.0,307.6666666666667 Q427.0,307.6666666666667 427.0,311.6666666666667 L427.0,380.0 Z" fill="#1baf7a"/>
<text x="415.0" y="301.6666666666667" text-anchor="middle" font-size="11.5" fill="#1a1a19">21</text>
<path d="M433.0,380.0 L433.0,356.44444444444446 Q433.0,352.44444444444446 437.0,352.44444444444446 L453.0,352.44444444444446 Q457.0,352.44444444444446 457.0,356.44444444444446 L457.0,380.0 Z" fill="#eda100"/>
<text x="445.0" y="346.44444444444446" text-anchor="middle" font-size="11.5" fill="#1a1a19">8</text>
<path d="M463.0,380.0 L463.0,359.8888888888889 Q463.0,355.8888888888889 467.0,355.8888888888889 L483.0,355.8888888888889 Q487.0,355.8888888888889 487.0,359.8888888888889 L487.0,380.0 Z" fill="#eb6834"/>
<text x="475.0" y="349.8888888888889" text-anchor="middle" font-size="11.5" fill="#1a1a19">7</text>
<text x="430.0" y="402" text-anchor="middle" font-size="13" font-weight="600" fill="#1a1a19">Sonnet 4.6</text>
<path d="M547.0,380.0 L547.0,239.33333333333334 Q547.0,235.33333333333334 551.0,235.33333333333334 L567.0,235.33333333333334 Q571.0,235.33333333333334 571.0,239.33333333333334 L571.0,380.0 Z" fill="#2a78d6"/>
<text x="559.0" y="229.33333333333334" text-anchor="middle" font-size="11.5" fill="#1a1a19">42</text>
<path d="M577.0,380.0 L577.0,353.0 Q577.0,349.0 581.0,349.0 L597.0,349.0 Q601.0,349.0 601.0,353.0 L601.0,380.0 Z" fill="#1baf7a"/>
<text x="589.0" y="343.0" text-anchor="middle" font-size="11.5" fill="#1a1a19">9</text>
<path d="M607.0,380.0 L607.0,349.55555555555554 Q607.0,345.55555555555554 611.0,345.55555555555554 L627.0,345.55555555555554 Q631.0,345.55555555555554 631.0,349.55555555555554 L631.0,380.0 Z" fill="#eda100"/>
<text x="619.0" y="339.55555555555554" text-anchor="middle" font-size="11.5" fill="#1a1a19">10</text>
<path d="M637.0,380.0 L637.0,359.8888888888889 Q637.0,355.8888888888889 641.0,355.8888888888889 L657.0,355.8888888888889 Q661.0,355.8888888888889 661.0,359.8888888888889 L661.0,380.0 Z" fill="#eb6834"/>
<text x="649.0" y="349.8888888888889" text-anchor="middle" font-size="11.5" fill="#1a1a19">7</text>
<text x="604.0" y="402" text-anchor="middle" font-size="13" font-weight="600" fill="#1a1a19">Opus 4.8</text>
<line x1="189.0" y1="380" x2="671.0" y2="380" stroke="#52514e" stroke-width="1.2"/>
  <circle cx="205.0" cy="442" r="6" fill="#2a78d6"/>
  <text x="217.0" y="446" font-size="13" fill="#52514e" font-family="Helvetica,Arial,sans-serif">baseline</text>
  <circle cx="305.0" cy="442" r="6" fill="#1baf7a"/>
  <text x="317.0" y="446" font-size="13" fill="#52514e" font-family="Helvetica,Arial,sans-serif">caveman</text>
  <circle cx="398.0" cy="442" r="6" fill="#eda100"/>
  <text x="410.0" y="446" font-size="13" fill="#52514e" font-family="Helvetica,Arial,sans-serif">ponytail</text>
  <circle cx="498.0" cy="442" r="6" fill="#eb6834"/>
  <text x="510.0" y="446" font-size="13" fill="#52514e" font-family="Helvetica,Arial,sans-serif">scalpel</text>
</svg>