<svg viewBox="0 0 780 440" xmlns="http://www.w3.org/2000/svg" font-family="Helvetica,Arial,sans-serif">
<rect width="780" height="440" fill="#fcfcfb"/>
<text x="390.0" y="32" text-anchor="middle" font-size="18" font-weight="600" fill="#1a1a19">Scalpel vs ponytail, head-to-head</text>
<text x="390.0" y="52" text-anchor="middle" font-size="12.5" fill="#52514e">Scalpel as % of ponytail's median, same tasks/models/n=50. Ponytail = 100% (dashed). Lower is better for scalpel.</text>
<line x1="151.0" y1="360.0" x2="629.0" y2="360.0" stroke="#e3e1d8" stroke-width="1"/>
<text x="143.0" y="364.0" text-anchor="end" font-size="11" fill="#52514e">0%</text>
<line x1="151.0" y1="287.5" x2="629.0" y2="287.5" stroke="#e3e1d8" stroke-width="1"/>
<text x="143.0" y="291.5" text-anchor="end" font-size="11" fill="#52514e">25%</text>
<line x1="151.0" y1="215.0" x2="629.0" y2="215.0" stroke="#e3e1d8" stroke-width="1"/>
<text x="143.0" y="219.0" text-anchor="end" font-size="11" fill="#52514e">50%</text>
<line x1="151.0" y1="142.5" x2="629.0" y2="142.5" stroke="#e3e1d8" stroke-width="1"/>
<text x="143.0" y="146.5" text-anchor="end" font-size="11" fill="#52514e">75%</text>
<line x1="151.0" y1="70.0" x2="629.0" y2="70.0" stroke="#e3e1d8" stroke-width="1"/>
<text x="143.0" y="74.0" text-anchor="end" font-size="11" fill="#52514e">100%</text>
<line x1="151.0" y1="70" x2="629.0" y2="70" stroke="#52514e" stroke-width="1.5" stroke-dasharray="5,4"/>
<text x="633.0" y="74" font-size="11" fill="#52514e">ponytail</text>
<path d="M161.0,360.0 L161.0,108.22 Q161.0,104.22 165.0,104.22 L187.0,104.22 Q191.0,104.22 191.0,108.22 L191.0,360.0 Z" fill="#2a78d6"/>
<text x="176.0" y="98.22" text-anchor="middle" font-size="11.5" fill="#1a1a19">88.2%</text>
<path d="M199.0,360.0 L199.0,110.25 Q199.0,106.25 203.0,106.25 L225.0,106.25 Q229.0,106.25 229.0,110.25 L229.0,360.0 Z" fill="#1baf7a"/>
<text x="214.0" y="100.25" text-anchor="middle" font-size="11.5" fill="#1a1a19">87.5%</text>
<path d="M237.0,360.0 L237.0,161.0 Q237.0,157.0 241.0,157.0 L263.0,157.0 Q267.0,157.0 267.0,161.0 L267.0,360.0 Z" fill="#eda100"/>
<text x="252.0" y="151.0" text-anchor="middle" font-size="11.5" fill="#1a1a19">70%</text>
<text x="214.0" y="384" text-anchor="middle" font-size="13" font-weight="600" fill="#1a1a19">LOC</text>
<path d="M337.0,360.0 L337.0,140.7 Q337.0,136.7 341.0,136.7 L363.0,136.7 Q367.0,136.7 367.0,140.7 L367.0,360.0 Z" fill="#2a78d6"/>
<text x="352.0" y="130.7" text-anchor="middle" font-size="11.5" fill="#1a1a19">77%</text>
<path d="M375.0,360.0 L375.0,147.95 Q375.0,143.95 379.0,143.95 L401.0,143.95 Q405.0,143.95 405.0,147.95 L405.0,360.0 Z" fill="#1baf7a"/>
<text x="390.0" y="137.95" text-anchor="middle" font-size="11.5" fill="#1a1a19">74.5%</text>
<path d="M413.0,360.0 L413.0,150.85 Q413.0,146.85 417.0,146.85 L439.0,146.85 Q443.0,146.85 443.0,150.85 L443.0,360.0 Z" fill="#eda100"/>
<text x="428.0" y="140.85" text-anchor="middle" font-size="11.5" fill="#1a1a19">73.5%</text>
<text x="390.0" y="384" text-anchor="middle" font-size="13" font-weight="600" fill="#1a1a19">Tokens</text>
<path d="M513.0,360.0 L513.0,121.85000000000002 Q513.0,117.85000000000002 517.0,117.85000000000002 L539.0,117.85000000000002 Q543.0,117.85000000000002 543.0,121.85000000000002 L543.0,360.0 Z" fill="#2a78d6"/>
<text x="528.0" y="111.85000000000002" text-anchor="middle" font-size="11.5" fill="#1a1a19">83.5%</text>
<path d="M551.0,360.0 L551.0,109.96000000000004 Q551.0,105.96000000000004 555.0,105.96000000000004 L577.0,105.96000000000004 Q581.0,105.96000000000004 581.0,109.96000000000004 L581.0,360.0 Z" fill="#1baf7a"/>
<text x="566.0" y="99.96000000000004" text-anchor="middle" font-size="11.5" fill="#1a1a19">87.6%</text>
<path d="M589.0,360.0 L589.0,127.36000000000001 Q589.0,123.36000000000001 593.0,123.36000000000001 L615.0,123.36000000000001 Q619.0,123.36000000000001 619.0,127.36000000000001 L619.0,360.0 Z" fill="#eda100"/>
<text x="604.0" y="117.36000000000001" text-anchor="middle" font-size="11.5" fill="#1a1a19">81.6%</text>
<text x="566.0" y="384" text-anchor="middle" font-size="13" font-weight="600" fill="#1a1a19">Cost</text>
<line x1="151.0" y1="360" x2="629.0" y2="360" stroke="#52514e" stroke-width="1.2"/>
  <circle cx="167.0" cy="422" r="6" fill="#2a78d6"/>
  <text x="179.0" y="426" font-size="13" fill="#52514e" font-family="Helvetica,Arial,sans-serif">Haiku 4.5</text>
  <circle cx="274.0" cy="422" r="6" fill="#1baf7a"/>
  <text x="286.0" y="426" font-size="13" fill="#52514e" font-family="Helvetica,Arial,sans-serif">Sonnet 4.6</text>
  <circle cx="388.0" cy="422" r="6" fill="#eda100"/>
  <text x="400.0" y="426" font-size="13" fill="#52514e" font-family="Helvetica,Arial,sans-serif">Opus 4.8</text>
</svg>